<svg xmlns="http://www.w3.org/2000/svg" viewBox="0 0 200 200" width="200" height="200">
  <!-- شعار السعد للسياحة والسفر باللون الأبيض -->
  <g fill="#FFFFFF">
    <!-- الدائرة الخارجية -->
    <path d="M100,10 C48.5,10 10,48.5 10,100 C10,151.5 48.5,190 100,190 C151.5,190 190,151.5 190,100 C190,48.5 151.5,10 100,10 Z M100,180 C54,180 20,146 20,100 C20,54 54,20 100,20 C146,20 180,54 180,100 C180,146 146,180 100,180 Z" />
    
    <!-- حرف السين -->
    <path d="M65,90 C65,85 70,80 75,80 C80,80 85,85 85,90 L85,110 C85,115 80,120 75,120 C70,120 65,115 65,110 L65,90 Z M75,90 L75,110" />
    
    <!-- حرف العين -->
    <path d="M95,90 C95,85 100,80 105,80 C110,80 115,85 115,90 L115,110 C115,115 110,120 105,120 C100,120 95,115 95,110 L95,90 Z M105,90 L105,110 M105,100 C110,100 115,95 115,90" />
    
    <!-- حرف الدال -->
    <path d="M125,80 L145,80 L145,120 L125,120 L125,80 Z M135,80 L135,120" />
    
    <!-- طائرة -->
    <path d="M50,60 L60,50 L70,50 L80,60 L70,70 L60,70 L50,60 Z" />
    
    <!-- نخلة -->
    <path d="M140,60 C140,50 150,50 150,60 C150,50 160,50 160,60 L150,70 L140,60 Z M150,70 L150,75" />
  </g>
</svg>
