<?xml version="1.0" standalone="no"?>
<!DOCTYPE svg PUBLIC "-//W3C//DTD SVG 20010904//EN"
 "http://www.w3.org/TR/2001/REC-SVG-20010904/DTD/svg10.dtd">
<svg version="1.0" xmlns="http://www.w3.org/2000/svg"
 width="1055.000000pt" height="717.000000pt" viewBox="0 0 1055.000000 717.000000"
 preserveAspectRatio="xMidYMid meet">

<g transform="translate(0.000000,717.000000) scale(0.100000,-0.100000)"
fill="#000000" stroke="none">
<path d="M6983 5646 c-51 -36 -117 -83 -148 -106 l-55 -41 0 -143 c0 -103 4
-146 13 -153 6 -5 44 -22 82 -38 39 -16 100 -43 137 -62 37 -18 70 -33 73 -33
3 0 5 144 5 320 0 176 -3 320 -7 320 -5 0 -49 -29 -100 -64z"/>
<path d="M7410 5657 c-41 -29 -106 -76 -145 -103 l-70 -50 -2 -245 -2 -244
154 -92 155 -91 0 439 c0 241 -3 439 -7 439 -5 -1 -42 -24 -83 -53z"/>
<path d="M4994 5628 c-3 -4 8 -8 25 -8 16 0 31 -5 33 -12 3 -8 6 -6 10 4 5 12
-1 17 -28 20 -20 2 -37 0 -40 -4z"/>
<path d="M4295 5610 c-16 -7 -17 -9 -3 -9 9 -1 20 4 23 9 7 11 7 11 -20 0z"/>
<path d="M4338 5613 c7 -3 16 -2 19 1 4 3 -2 6 -13 5 -11 0 -14 -3 -6 -6z"/>
<path d="M3705 5590 c-3 -6 1 -7 9 -4 18 7 21 14 7 14 -6 0 -13 -4 -16 -10z"/>
<path d="M3756 5592 c-3 -5 8 -6 25 -4 16 2 29 6 29 8 0 8 -49 4 -54 -4z"/>
<path d="M3898 5583 c6 -2 18 -2 25 0 6 3 1 5 -13 5 -14 0 -19 -2 -12 -5z"/>
<path d="M5035 5579 c-4 -6 -5 -12 -2 -15 2 -3 7 2 10 11 7 17 1 20 -8 4z"/>
<path d="M3617 5553 c-10 -17 3 -43 22 -43 10 0 12 3 5 8 -7 4 -13 16 -16 27
-2 13 -6 16 -11 8z"/>
<path d="M4338 5553 c7 -3 16 -2 19 1 4 3 -2 6 -13 5 -11 0 -14 -3 -6 -6z"/>
<path d="M4795 5530 c-16 -11 -27 -20 -24 -20 9 0 69 31 69 36 0 9 -16 3 -45
-16z"/>
<path d="M4408 5533 c6 -2 18 -2 25 0 6 3 1 5 -13 5 -14 0 -19 -2 -12 -5z"/>
<path d="M3670 5509 c0 -5 5 -7 10 -4 6 3 10 8 10 11 0 2 -4 4 -10 4 -5 0 -10
-5 -10 -11z"/>
<path d="M4980 5485 c-7 -9 -8 -15 -2 -15 5 0 12 7 16 15 3 8 4 15 2 15 -2 0
-9 -7 -16 -15z"/>
<path d="M3985 5450 c21 -16 40 -30 43 -30 3 0 -10 14 -28 30 -18 17 -38 30
-43 30 -5 0 7 -13 28 -30z"/>
<path d="M4068 5408 c6 -6 18 -8 28 -6 14 3 12 5 -9 10 -19 3 -25 2 -19 -4z"/>
<path d="M5648 5333 c7 -3 16 -2 19 1 4 3 -2 6 -13 5 -11 0 -14 -3 -6 -6z"/>
<path d="M5708 5323 c7 -3 16 -2 19 1 4 3 -2 6 -13 5 -11 0 -14 -3 -6 -6z"/>
<path d="M5570 5290 c8 -5 20 -10 25 -10 6 0 3 5 -5 10 -8 5 -19 10 -25 10 -5
0 -3 -5 5 -10z"/>
<path d="M5978 5293 c7 -3 16 -2 19 1 4 3 -2 6 -13 5 -11 0 -14 -3 -6 -6z"/>
<path d="M5918 5273 c6 -2 18 -2 25 0 6 3 1 5 -13 5 -14 0 -19 -2 -12 -5z"/>
<path d="M6078 5263 c7 -3 16 -2 19 1 4 3 -2 6 -13 5 -11 0 -14 -3 -6 -6z"/>
<path d="M5850 5220 c-8 -5 -10 -10 -5 -10 6 0 17 5 25 10 8 5 11 10 5 10 -5
0 -17 -5 -25 -10z"/>
<path d="M6035 5170 c4 -6 11 -8 16 -5 14 9 11 15 -7 15 -8 0 -12 -5 -9 -10z"/>
<path d="M6520 5160 c0 -5 5 -10 11 -10 5 0 7 5 4 10 -3 6 -8 10 -11 10 -2 0
-4 -4 -4 -10z"/>
<path d="M6015 5150 c27 -12 43 -12 25 0 -8 5 -22 9 -30 9 -10 0 -8 -3 5 -9z"/>
<path d="M6127 5139 c7 -7 15 -10 18 -7 3 3 -2 9 -12 12 -14 6 -15 5 -6 -5z"/>
<path d="M6390 5134 c0 -7 52 -25 57 -20 2 2 -10 8 -26 14 -17 6 -31 9 -31 6z"/>
<path d="M6476 5117 c3 -10 9 -15 12 -12 3 3 0 11 -7 18 -10 9 -11 8 -5 -6z"/>
<path d="M6601 5126 c2 -2 22 -6 44 -9 28 -5 34 -4 20 3 -19 8 -73 14 -64 6z"/>
<path d="M6256 5096 c10 -8 21 -12 24 -10 5 6 -21 24 -34 24 -6 0 -1 -6 10
-14z"/>
<path d="M6180 5087 c0 -3 15 -10 32 -16 18 -6 28 -7 23 -2 -12 10 -55 25 -55
18z"/>
<path d="M6530 5076 c0 -2 9 -6 20 -9 11 -3 18 -1 14 4 -5 9 -34 13 -34 5z"/>
<path d="M6270 5048 c13 -14 49 -27 54 -20 3 5 0 9 -7 9 -7 0 -21 4 -32 8 -11
5 -18 6 -15 3z"/>
<path d="M6830 5046 c0 -2 7 -7 16 -10 8 -3 12 -2 9 4 -6 10 -25 14 -25 6z"/>
<path d="M6640 5033 c8 -3 22 -11 30 -17 13 -10 13 -9 1 7 -7 9 -21 17 -30 16
-13 0 -14 -1 -1 -6z"/>
<path d="M6483 5005 c0 -8 4 -12 9 -9 5 3 6 10 3 15 -9 13 -12 11 -12 -6z"/>
<path d="M6400 4985 c14 -8 30 -14 35 -14 6 0 -1 6 -15 14 -14 8 -29 14 -35
14 -5 0 1 -6 15 -14z"/>
<path d="M6966 4988 c7 -11 94 -52 99 -46 2 1 -21 15 -51 30 -30 14 -51 22
-48 16z"/>
<path d="M6755 4980 c3 -5 8 -10 11 -10 2 0 4 5 4 10 0 6 -5 10 -11 10 -5 0
-7 -4 -4 -10z"/>
<path d="M6808 4953 c7 -3 16 -2 19 1 4 3 -2 6 -13 5 -11 0 -14 -3 -6 -6z"/>
<path d="M6530 4916 c28 -17 50 -21 35 -7 -6 5 -21 12 -35 15 l-25 7 25 -15z"/>
<path d="M6680 4910 c0 -5 5 -10 11 -10 5 0 7 5 4 10 -3 6 -8 10 -11 10 -2 0
-4 -4 -4 -10z"/>
<path d="M7124 4912 c4 -7 26 -22 49 -33 49 -25 39 -12 -17 21 -22 13 -36 18
-32 12z"/>
<path d="M6920 4895 c14 -8 30 -14 35 -14 6 0 -1 6 -15 14 -14 8 -29 14 -35
14 -5 0 1 -6 15 -14z"/>
<path d="M6598 4878 c5 -5 16 -8 23 -6 8 3 3 7 -10 11 -17 4 -21 3 -13 -5z"/>
<path d="M6685 4880 c-3 -5 -1 -10 4 -10 6 0 11 5 11 10 0 6 -2 10 -4 10 -3 0
-8 -4 -11 -10z"/>
<path d="M6980 4876 c0 -2 8 -10 18 -17 15 -13 16 -12 3 4 -13 16 -21 21 -21
13z"/>
<path d="M6826 4835 c10 -8 24 -14 29 -14 6 0 1 6 -9 14 -11 8 -24 15 -30 15
-5 0 -1 -7 10 -15z"/>
<path d="M7253 4840 c2 -8 12 -16 23 -17 13 -2 15 -1 4 4 -8 3 -19 11 -23 17
-6 7 -7 6 -4 -4z"/>
<path d="M7065 4825 c21 -8 41 -12 44 -10 2 3 -2 5 -10 5 -10 0 -11 2 -2 8 7
4 -6 8 -30 9 l-42 2 40 -14z"/>
<path d="M6690 4826 c0 -2 7 -7 16 -10 8 -3 12 -2 9 4 -6 10 -25 14 -25 6z"/>
<path d="M6730 4806 c0 -2 14 -14 30 -26 17 -12 30 -19 30 -16 0 2 -13 14 -30
26 -16 12 -30 19 -30 16z"/>
<path d="M6770 4806 c0 -2 7 -7 16 -10 8 -3 12 -2 9 4 -6 10 -25 14 -25 6z"/>
<path d="M6897 4799 c7 -7 15 -10 18 -7 3 3 -2 9 -12 12 -14 6 -15 5 -6 -5z"/>
<path d="M6956 4765 c10 -8 23 -15 28 -15 6 0 1 7 -10 15 -10 8 -23 15 -28 15
-6 0 -1 -7 10 -15z"/>
<path d="M7160 4766 c0 -3 9 -10 20 -16 11 -6 20 -8 20 -6 0 3 -9 10 -20 16
-11 6 -20 8 -20 6z"/>
<path d="M6824 4741 c7 -11 46 -35 46 -28 0 3 -12 12 -26 22 -15 9 -23 12 -20
6z"/>
<path d="M7210 4736 c0 -2 19 -15 43 -30 l42 -27 -35 31 c-30 27 -50 37 -50
26z"/>
<path d="M7049 4711 c13 -12 28 -21 34 -21 12 0 11 0 -28 24 l-30 17 24 -20z"/>
<path d="M7447 4719 c7 -7 15 -10 18 -7 3 3 -2 9 -12 12 -14 6 -15 5 -6 -5z"/>
<path d="M7300 4676 c0 -2 7 -7 16 -10 8 -3 12 -2 9 4 -6 10 -25 14 -25 6z"/>
<path d="M7520 4676 c0 -2 14 -14 30 -26 17 -12 30 -19 30 -16 0 2 -13 14 -30
26 -16 12 -30 19 -30 16z"/>
<path d="M7157 4642 c12 -11 20 -21 18 -24 -2 -2 5 -4 16 -4 19 0 20 1 2 14
-10 7 -27 18 -38 23 -18 9 -17 8 2 -9z"/>
<path d="M7000 4615 c13 -14 25 -23 28 -21 4 5 -35 46 -45 46 -3 0 4 -11 17
-25z"/>
<path d="M7375 4630 c3 -5 11 -10 16 -10 6 0 7 5 4 10 -3 6 -11 10 -16 10 -6
0 -7 -4 -4 -10z"/>
<path d="M6780 4227 c0 -351 -2 -396 -16 -401 -9 -3 -85 -6 -170 -6 l-154 0 0
315 c0 173 -2 315 -5 315 -2 0 -60 -20 -127 -44 -68 -24 -133 -47 -145 -51
l-23 -6 0 -253 c0 -183 -3 -255 -12 -264 -7 -7 -34 -12 -60 -12 l-48 0 0 280
c0 154 -3 280 -7 280 -5 0 -72 -23 -150 -51 l-143 -51 -2 -227 -3 -226 -55 -3
-55 -3 3 281 c2 222 0 280 -10 280 -7 0 -77 -23 -155 -51 l-143 -51 -2 -227
-3 -226 -192 -3 c-106 -1 -193 0 -193 4 0 3 9 17 19 30 33 43 79 166 90 243
24 177 -60 330 -217 393 -51 21 -73 23 -217 22 -161 0 -225 -8 -427 -55 l-88
-21 0 -192 0 -192 113 -112 c63 -62 112 -114 109 -117 -3 -3 -110 -5 -237 -5
l-232 0 -6 153 c-9 215 -36 303 -122 392 -58 59 -184 105 -289 105 -48 0 -201
-25 -258 -42 l-38 -11 0 -145 0 -144 28 7 c202 52 300 41 348 -39 15 -24 20
-57 24 -154 l5 -122 -277 0 -278 0 0 -151 0 -150 693 4 c741 4 737 3 896 57
l54 18 71 -28 c114 -45 184 -52 466 -48 240 3 258 4 300 25 25 13 57 34 72 48
15 14 30 25 33 25 3 0 5 -23 5 -51 l0 -51 128 4 c138 4 206 24 253 74 12 13
26 24 31 24 4 0 8 -23 8 -51 l0 -51 128 4 c138 4 206 24 253 74 12 13 25 24
28 24 3 0 4 -23 2 -51 l-3 -51 243 4 c230 3 247 4 294 26 59 27 110 73 135
123 32 61 40 152 40 444 l-1 280 -77 61 c-69 55 -187 140 -219 158 -10 6 -13
-75 -13 -387z m-2155 -18 c49 -13 85 -45 85 -74 0 -37 -29 -108 -59 -144 -26
-32 -30 -33 -49 -19 -45 31 -253 220 -248 225 18 19 216 27 271 12z"/>
<path d="M7230 4586 c0 -2 7 -6 15 -10 8 -3 15 -1 15 4 0 6 -7 10 -15 10 -8 0
-15 -2 -15 -4z"/>
<path d="M7635 4580 c3 -5 11 -10 16 -10 6 0 7 5 4 10 -3 6 -11 10 -16 10 -6
0 -7 -4 -4 -10z"/>
<path d="M7065 4560 c3 -5 11 -10 16 -10 6 0 7 5 4 10 -3 6 -11 10 -16 10 -6
0 -7 -4 -4 -10z"/>
<path d="M7490 4560 c-9 -6 -10 -10 -3 -10 6 0 15 5 18 10 8 12 4 12 -15 0z"/>
<path d="M7676 4552 c-3 -5 1 -9 9 -9 8 0 12 4 9 9 -3 4 -7 8 -9 8 -2 0 -6 -4
-9 -8z"/>
<path d="M7312 4534 c10 -10 20 -15 24 -12 3 4 -5 12 -18 18 -22 12 -22 12 -6
-6z"/>
<path d="M7100 4536 c0 -2 8 -10 18 -17 15 -13 16 -12 3 4 -13 16 -21 21 -21
13z"/>
<path d="M7507 4529 c7 -7 15 -10 18 -7 3 3 -2 9 -12 12 -14 6 -15 5 -6 -5z"/>
<path d="M7716 4526 c3 -8 13 -17 22 -21 13 -5 13 -2 -3 15 -21 24 -26 25 -19
6z"/>
<path d="M7140 4507 c0 -9 79 -81 94 -86 10 -4 -16 22 -73 73 -11 11 -21 16
-21 13z"/>
<path d="M7350 4506 c0 -2 7 -7 16 -10 8 -3 12 -2 9 4 -6 10 -25 14 -25 6z"/>
<path d="M7572 4484 c10 -10 20 -16 22 -13 3 3 -5 11 -17 18 -21 13 -21 12 -5
-5z"/>
<path d="M7782 4475 c15 -16 29 -27 31 -24 3 2 -10 15 -27 28 l-31 24 27 -28z"/>
<path d="M7442 4440 c7 -11 17 -20 22 -20 5 0 1 9 -9 20 -10 11 -20 20 -22 20
-2 0 2 -9 9 -20z"/>
<path d="M7621 4448 c2 -2 18 -14 34 -28 l30 -25 -24 28 c-14 15 -29 27 -34
27 -6 0 -8 -1 -6 -2z"/>
<path d="M7864 4406 c16 -14 31 -26 34 -26 10 0 -22 32 -42 42 -14 6 -11 1 8
-16z"/>
<path d="M7485 4400 c3 -5 8 -10 11 -10 2 0 4 5 4 10 0 6 -5 10 -11 10 -5 0
-7 -4 -4 -10z"/>
<path d="M7697 4389 c7 -7 15 -10 18 -7 3 3 -2 9 -12 12 -14 6 -15 5 -6 -5z"/>
<path d="M7727 4359 c7 -7 15 -10 18 -7 3 3 -2 9 -12 12 -14 6 -15 5 -6 -5z"/>
<path d="M7336 4318 c3 -5 10 -6 15 -3 13 9 11 12 -6 12 -8 0 -12 -4 -9 -9z"/>
<path d="M7605 4310 c10 -11 20 -20 23 -20 3 0 -3 9 -13 20 -10 11 -20 20 -23
20 -3 0 3 -9 13 -20z"/>
<path d="M7957 4314 c3 -7 9 -14 14 -14 14 0 10 17 -5 23 -10 4 -13 1 -9 -9z"/>
<path d="M7790 4304 c8 -8 23 -20 34 -26 15 -8 13 -3 -7 16 -31 28 -47 35 -27
10z"/>
<path d="M7190 3890 c0 -313 3 -400 13 -400 6 0 76 23 155 51 l142 52 0 171 0
171 -60 80 c-62 84 -230 273 -242 274 -5 1 -8 -179 -8 -399z"/>
<path d="M7386 4281 c-3 -4 7 -19 22 -32 l27 -24 -23 26 c-12 14 -19 29 -15
32 3 4 4 7 0 7 -3 0 -8 -4 -11 -9z"/>
<path d="M8010 4277 c0 -2 15 -16 33 -33 l32 -29 -29 33 c-28 30 -36 37 -36
29z"/>
<path d="M7655 4264 c6 -5 23 -20 40 -34 29 -24 29 -24 10 -2 -11 13 -29 28
-40 34 -11 6 -15 6 -10 2z"/>
<path d="M7865 4240 c3 -5 11 -10 16 -10 6 0 7 5 4 10 -3 6 -11 10 -16 10 -6
0 -7 -4 -4 -10z"/>
<path d="M7900 4206 c0 -2 8 -10 18 -17 15 -13 16 -12 3 4 -13 16 -21 21 -21
13z"/>
<path d="M7784 4146 c32 -31 61 -56 64 -56 10 0 -81 90 -102 102 -11 6 6 -15
38 -46z"/>
<path d="M8090 4197 c0 -2 15 -16 33 -33 l32 -29 -29 33 c-28 30 -36 37 -36
29z"/>
<path d="M7940 4172 c0 -12 19 -26 26 -19 2 2 -2 10 -11 17 -9 8 -15 8 -15 2z"/>
<path d="M8090 4166 c0 -2 8 -10 18 -17 15 -13 16 -12 3 4 -13 16 -21 21 -21
13z"/>
<path d="M7999 4107 c19 -20 39 -37 43 -37 10 0 -25 36 -57 60 -11 8 -4 -3 14
-23z"/>
<path d="M8170 4107 c0 -2 14 -16 32 -33 29 -26 22 -10 -9 23 -11 12 -23 17
-23 10z"/>
<path d="M7560 4081 c0 -5 5 -13 10 -16 6 -3 10 -2 10 4 0 5 -4 13 -10 16 -5
3 -10 2 -10 -4z"/>
<path d="M7885 4050 c3 -5 8 -10 11 -10 2 0 4 5 4 10 0 6 -5 10 -11 10 -5 0
-7 -4 -4 -10z"/>
<path d="M8105 3998 c32 -38 60 -68 63 -68 6 0 -73 93 -99 115 -13 11 3 -10
36 -47z"/>
<path d="M7910 4026 c0 -3 25 -29 56 -60 31 -30 54 -59 51 -63 -3 -5 3 -9 13
-9 14 0 1 18 -48 68 -66 67 -72 72 -72 64z"/>
<path d="M8259 4012 c5 -10 18 -25 27 -33 11 -9 9 -2 -6 19 -26 35 -36 42 -21
14z"/>
<path d="M7870 4010 c0 -5 5 -10 11 -10 5 0 7 5 4 10 -3 6 -8 10 -11 10 -2 0
-4 -4 -4 -10z"/>
<path d="M7630 3991 c5 -11 15 -23 21 -27 6 -3 3 5 -6 20 -20 30 -30 35 -15 7z"/>
<path d="M8320 3944 c1 -13 29 -48 34 -43 2 2 -4 15 -15 28 -10 13 -19 19 -19
15z"/>
<path d="M7695 3896 c21 -32 27 -33 16 -4 -4 12 -14 24 -20 26 -8 3 -7 -5 4
-22z"/>
<path d="M8209 3876 c27 -29 33 -32 25 -13 -2 7 -14 19 -27 26 -21 13 -21 12
2 -13z"/>
<path d="M8095 3823 c11 -18 23 -33 28 -33 11 0 -8 34 -29 51 -16 12 -16 10 1
-18z"/>
<path d="M8350 3840 c0 -5 5 -10 10 -10 6 0 10 5 10 10 0 6 -4 10 -10 10 -5 0
-10 -4 -10 -10z"/>
<path d="M8390 3840 c0 -5 5 -10 11 -10 5 0 7 5 4 10 -3 6 -8 10 -11 10 -2 0
-4 -4 -4 -10z"/>
<path d="M8298 3833 c7 -3 16 -2 19 1 4 3 -2 6 -13 5 -11 0 -14 -3 -6 -6z"/>
<path d="M7750 3811 c0 -10 19 -25 25 -20 1 2 -3 10 -11 17 -8 7 -14 8 -14 3z"/>
<path d="M7848 3793 c7 -3 16 -2 19 1 4 3 -2 6 -13 5 -11 0 -14 -3 -6 -6z"/>
<path d="M7928 3793 c6 -2 18 -2 25 0 6 3 1 5 -13 5 -14 0 -19 -2 -12 -5z"/>
<path d="M6932 3310 c-17 -27 -15 -35 4 -16 8 9 14 21 12 26 -2 6 -9 1 -16
-10z"/>
<path d="M7100 3305 c-7 -9 -8 -15 -2 -15 5 0 12 7 16 15 3 8 4 15 2 15 -2 0
-9 -7 -16 -15z"/>
<path d="M4675 3299 c-4 -6 -5 -12 -2 -15 2 -3 7 2 10 11 7 17 1 20 -8 4z"/>
<path d="M4527 3286 c-3 -8 2 -20 11 -28 15 -11 15 -11 5 3 -10 12 -10 18 -1
27 8 8 9 12 1 12 -6 0 -13 -6 -16 -14z"/>
<path d="M7124 3267 c0 -15 6 -23 14 -20 10 4 10 9 0 22 -7 9 -13 17 -14 19
-1 2 -1 -8 0 -21z"/>
<path d="M3615 3271 c-3 -7 0 -8 9 -5 17 7 22 -11 6 -19 -6 -3 -5 -4 2 -3 16
3 17 28 1 33 -6 2 -14 -1 -18 -6z"/>
<path d="M4570 3265 c0 -8 4 -15 10 -15 5 0 7 7 4 15 -4 8 -8 15 -10 15 -2 0
-4 -7 -4 -15z"/>
<path d="M5273 3265 c-3 -9 -3 -19 1 -22 3 -4 6 1 6 11 0 9 5 14 10 11 6 -4 7
-12 4 -18 -5 -9 -4 -9 6 0 13 12 6 33 -11 33 -5 0 -12 -7 -16 -15z"/>
<path d="M7080 3276 c0 -2 8 -10 18 -17 15 -13 16 -12 3 4 -13 16 -21 21 -21
13z"/>
<path d="M5229 3243 c-13 -16 -12 -17 4 -4 16 13 21 21 13 21 -2 0 -10 -8 -17
-17z"/>
<path d="M6910 3240 c0 -11 2 -20 4 -20 2 0 6 9 9 20 3 11 1 20 -4 20 -5 0 -9
-9 -9 -20z"/>
<path d="M6911 3154 c0 -11 3 -14 6 -6 3 7 2 16 -1 19 -3 4 -6 -2 -5 -13z"/>
<path d="M5295 3150 c-3 -5 -1 -10 4 -10 6 0 11 5 11 10 0 6 -2 10 -4 10 -3 0
-8 -4 -11 -10z"/>
<path d="M3560 3089 c-12 -16 -20 -32 -17 -35 3 -3 13 8 23 25 10 17 25 32 33
34 13 4 13 5 -1 6 -9 0 -26 -13 -38 -30z"/>
<path d="M4855 3096 c-15 -14 -35 -42 -45 -63 -19 -38 -19 -38 0 -13 10 14 26
33 34 43 9 9 16 20 16 23 0 4 8 13 18 20 9 7 14 14 10 14 -4 0 -19 -11 -33
-24z"/>
<path d="M5270 3110 c-8 -5 -10 -10 -5 -10 6 0 17 5 25 10 8 5 11 10 5 10 -5
0 -17 -5 -25 -10z"/>
<path d="M5566 3096 c-15 -13 -26 -27 -26 -32 1 -5 9 1 20 14 l19 22 45 -25
c25 -14 48 -25 53 -25 4 1 -5 8 -20 16 -16 9 -27 18 -24 21 3 2 14 0 25 -6 39
-21 37 -11 -3 14 -50 30 -58 31 -89 1z m59 4 c3 -5 -1 -10 -9 -10 -8 0 -18 5
-21 10 -3 6 1 10 9 10 8 0 18 -4 21 -10z"/>
<path d="M4536 3095 c-9 -26 -7 -32 5 -12 6 10 9 21 6 23 -2 3 -7 -2 -11 -11z"/>
<path d="M4900 3106 c0 -2 8 -10 18 -17 15 -13 16 -12 3 4 -13 16 -21 21 -21
13z"/>
<path d="M7096 3094 c-9 -22 -7 -94 2 -94 4 0 7 25 7 55 0 30 -1 55 -1 55 -1
0 -5 -7 -8 -16z"/>
<path d="M5224 3082 c4 -7 3 -12 -3 -12 -12 0 -71 -49 -71 -60 0 -5 13 4 28
18 15 15 36 32 47 38 15 8 16 12 5 19 -9 5 -11 4 -6 -3z"/>
<path d="M5292 3070 c0 -14 2 -19 5 -12 2 6 2 18 0 25 -3 6 -5 1 -5 -13z"/>
<path d="M4244 3064 c-18 -14 -18 -15 4 -4 12 6 22 13 22 15 0 8 -5 6 -26 -11z"/>
<path d="M4915 3056 c10 -14 19 -26 22 -26 7 0 -17 39 -28 46 -6 3 -3 -5 6
-20z"/>
<path d="M5312 3055 c0 -16 2 -22 5 -12 2 9 2 23 0 30 -3 6 -5 -1 -5 -18z"/>
<path d="M3270 3050 c-6 -11 -8 -20 -6 -20 3 0 10 9 16 20 6 11 8 20 6 20 -3
0 -10 -9 -16 -20z"/>
<path d="M6690 3059 c0 -5 5 -7 10 -4 6 3 10 8 10 11 0 2 -4 4 -10 4 -5 0 -10
-5 -10 -11z"/>
<path d="M4127 3053 c-4 -3 -7 -11 -7 -17 0 -6 5 -5 12 2 6 6 9 14 7 17 -3 3
-9 2 -12 -2z"/>
<path d="M5720 3050 c0 -6 7 -10 15 -10 8 0 15 2 15 4 0 2 -7 6 -15 10 -8 3
-15 1 -15 -4z"/>
<path d="M6577 3053 c-4 -3 -7 -11 -7 -17 0 -6 5 -5 12 2 6 6 9 14 7 17 -3 3
-9 2 -12 -2z"/>
<path d="M3696 3002 l-19 -27 24 22 c12 12 21 24 18 27 -2 2 -13 -8 -23 -22z"/>
<path d="M6432 3023 c-6 -2 -10 -9 -6 -14 3 -5 0 -9 -5 -9 -6 0 -11 -4 -11
-10 0 -19 17 -10 28 15 6 14 11 25 9 24 -1 0 -8 -3 -15 -6z"/>
<path d="M3550 3012 c0 -11 39 -47 44 -41 2 2 -7 14 -20 27 -13 12 -24 19 -24
14z"/>
<path d="M6690 3001 c0 -11 4 -22 9 -25 5 -3 8 5 7 19 -1 29 -16 34 -16 6z"/>
<path d="M5305 3000 c3 -5 8 -10 11 -10 2 0 4 5 4 10 0 6 -5 10 -11 10 -5 0
-7 -4 -4 -10z"/>
<path d="M6246 2993 c-6 -14 -5 -15 5 -6 7 7 10 15 7 18 -3 3 -9 -2 -12 -12z"/>
<path d="M3965 2990 c-3 -5 -2 -10 4 -10 5 0 13 5 16 10 3 6 2 10 -4 10 -5 0
-13 -4 -16 -10z"/>
<path d="M5182 2984 c10 -10 20 -16 22 -13 3 3 -5 11 -17 18 -21 13 -21 12 -5
-5z"/>
<path d="M4540 2980 c0 -5 5 -10 11 -10 5 0 7 5 4 10 -3 6 -8 10 -11 10 -2 0
-4 -4 -4 -10z"/>
<path d="M5150 2981 c0 -10 19 -25 25 -20 1 2 -3 10 -11 17 -8 7 -14 8 -14 3z"/>
<path d="M5284 2978 c-4 -7 -4 -10 1 -6 4 4 14 0 22 -10 13 -15 13 -15 3 6
-12 25 -16 27 -26 10z"/>
<path d="M5690 2967 c-12 -21 -12 -21 6 -7 10 8 20 15 22 16 2 1 -1 4 -5 7 -5
3 -15 -4 -23 -16z"/>
<path d="M6554 2978 c3 -11 -2 -19 -13 -23 -10 -3 -18 -12 -18 -20 0 -21 9
-18 29 9 12 16 13 27 6 37 -8 11 -9 11 -4 -3z"/>
<path d="M7100 2975 c0 -7 -8 -19 -17 -24 -10 -6 -13 -11 -7 -11 11 0 44 32
44 43 0 4 -4 7 -10 7 -5 0 -10 -7 -10 -15z"/>
<path d="M4796 2966 c3 -8 13 -17 22 -21 13 -5 13 -2 -3 15 -21 24 -26 25 -19
6z"/>
<path d="M5261 2964 c0 -11 3 -14 6 -6 3 7 2 16 -1 19 -3 4 -6 -2 -5 -13z"/>
<path d="M3290 2960 c0 -5 5 -10 11 -10 5 0 7 5 4 10 -3 6 -8 10 -11 10 -2 0
-4 -4 -4 -10z"/>
<path d="M4260 2955 c0 -8 4 -15 10 -15 5 0 7 7 4 15 -4 8 -8 15 -10 15 -2 0
-4 -7 -4 -15z"/>
<path d="M5945 2960 c3 -5 11 -10 16 -10 6 0 7 5 4 10 -3 6 -11 10 -16 10 -6
0 -7 -4 -4 -10z"/>
<path d="M6250 2961 c0 -6 -7 -8 -15 -5 -8 4 -15 2 -15 -3 0 -12 38 -14 45 -3
3 5 1 11 -5 15 -5 3 -10 2 -10 -4z"/>
<path d="M6417 2959 c7 -7 15 -10 18 -7 3 3 -2 9 -12 12 -14 6 -15 5 -6 -5z"/>
<path d="M3329 2951 c7 -5 11 -14 7 -20 -10 -16 30 -22 114 -18 l75 3 -86 2
c-77 2 -87 4 -92 22 -3 11 -11 20 -19 20 -11 0 -10 -2 1 -9z"/>
<path d="M3945 2952 c-9 -6 -19 -32 -12 -32 1 0 10 9 20 20 16 20 12 27 -8 12z"/>
<path d="M4135 2950 c-3 -5 -1 -10 4 -10 6 0 11 5 11 10 0 6 -2 10 -4 10 -3 0
-8 -4 -11 -10z"/>
<path d="M4515 2950 c-19 -8 -19 -9 3 -9 12 -1 22 4 22 9 0 6 -1 10 -2 9 -2 0
-12 -4 -23 -9z"/>
<path d="M4670 2940 c0 -11 4 -20 9 -20 5 0 7 9 4 20 -3 11 -7 20 -9 20 -2 0
-4 -9 -4 -20z"/>
<path d="M5605 2950 c3 -5 11 -10 16 -10 6 0 7 5 4 10 -3 6 -11 10 -16 10 -6
0 -7 -4 -4 -10z"/>
<path d="M5655 2950 c-3 -5 -1 -10 4 -10 6 0 11 5 11 10 0 6 -2 10 -4 10 -3 0
-8 -4 -11 -10z"/>
<path d="M6950 2949 c0 -5 5 -7 10 -4 6 3 10 8 10 11 0 2 -4 4 -10 4 -5 0 -10
-5 -10 -11z"/>
<path d="M3548 2943 c7 -3 16 -2 19 1 4 3 -2 6 -13 5 -11 0 -14 -3 -6 -6z"/>
<path d="M4918 2943 c7 -3 16 -2 19 1 4 3 -2 6 -13 5 -11 0 -14 -3 -6 -6z"/>
<path d="M5208 2943 c6 -2 18 -2 25 0 6 3 1 5 -13 5 -14 0 -19 -2 -12 -5z"/>
<path d="M6201 2934 c0 -11 3 -14 6 -6 3 7 2 16 -1 19 -3 4 -6 -2 -5 -13z"/>
<path d="M6445 2939 c-11 -16 -1 -19 13 -3 7 8 8 14 3 14 -5 0 -13 -5 -16 -11z"/>
<path d="M6671 2934 c0 -11 3 -14 6 -6 3 7 2 16 -1 19 -3 4 -6 -2 -5 -13z"/>
<path d="M3300 2929 c0 -5 5 -7 10 -4 6 3 10 8 10 11 0 2 -4 4 -10 4 -5 0 -10
-5 -10 -11z"/>
<path d="M3605 2930 c-3 -6 1 -7 9 -4 18 7 21 14 7 14 -6 0 -13 -4 -16 -10z"/>
<path d="M6282 2924 c10 -10 20 -16 22 -13 3 3 -5 11 -17 18 -21 13 -21 12 -5
-5z"/>
<path d="M6577 2929 c7 -7 15 -10 18 -7 3 3 -2 9 -12 12 -14 6 -15 5 -6 -5z"/>
<path d="M6880 2930 c0 -5 5 -10 11 -10 5 0 7 5 4 10 -3 6 -8 10 -11 10 -2 0
-4 -4 -4 -10z"/>
<path d="M7057 2929 c7 -7 15 -10 18 -7 3 3 -2 9 -12 12 -14 6 -15 5 -6 -5z"/>
<path d="M3759 2917 c5 -5 26 -7 47 -5 l39 3 -47 5 c-26 3 -43 1 -39 -3z"/>
<path d="M4140 2920 c8 -5 20 -10 25 -10 6 0 3 5 -5 10 -8 5 -19 10 -25 10 -5
0 -3 -5 5 -10z"/>
<path d="M4200 2920 c-8 -5 -10 -10 -5 -10 6 0 17 5 25 10 8 5 11 10 5 10 -5
0 -17 -5 -25 -10z"/>
<path d="M4415 2920 l-90 -6 85 -2 c47 -1 92 3 100 8 8 5 11 9 5 8 -5 -1 -50
-5 -100 -8z"/>
<path d="M5340 2920 c8 -5 28 -10 44 -10 39 0 30 6 -19 13 -27 4 -35 3 -25 -3z"/>
<path d="M3868 2913 c7 -3 16 -2 19 1 4 3 -2 6 -13 5 -11 0 -14 -3 -6 -6z"/>
<path d="M5453 2913 c15 -2 37 -2 50 0 12 2 0 4 -28 4 -27 0 -38 -2 -22 -4z"/>
<path d="M6038 2913 c7 -3 16 -2 19 1 4 3 -2 6 -13 5 -11 0 -14 -3 -6 -6z"/>
<path d="M6093 2913 c9 -2 25 -2 35 0 9 3 1 5 -18 5 -19 0 -27 -2 -17 -5z"/>
<path d="M4940 2885 c-7 -9 -8 -15 -2 -15 5 0 12 7 16 15 3 8 4 15 2 15 -2 0
-9 -7 -16 -15z"/>
<path d="M3236 2855 c-17 -13 -34 -21 -39 -18 -6 3 -7 1 -3 -6 5 -8 15 -6 35
9 16 10 31 17 35 13 3 -3 6 1 6 10 0 21 1 21 -34 -8z"/>
<path d="M4905 2826 c-20 -20 -23 -25 -9 -18 22 11 50 41 43 45 -2 1 -17 -11
-34 -27z"/>
<path d="M6214 2836 c5 -13 2 -17 -8 -13 -10 4 -13 1 -9 -9 3 -7 9 -14 13 -14
13 0 19 26 8 41 -8 11 -9 10 -4 -5z"/>
<path d="M6261 2837 c-9 -11 -8 -17 4 -27 12 -10 16 -9 21 5 9 23 -10 40 -25
22z m19 -13 c0 -8 -5 -12 -10 -9 -6 4 -8 11 -5 16 9 14 15 11 15 -7z"/>
<path d="M3156 2831 c-6 -10 24 -25 32 -16 3 3 0 5 -7 5 -7 0 -9 5 -6 10 3 6
2 10 -4 10 -5 0 -12 -4 -15 -9z"/>
<path d="M3240 2825 c-11 -13 -10 -14 4 -9 9 3 16 10 16 15 0 13 -6 11 -20 -6z"/>
<path d="M4820 2819 c19 -10 40 -18 45 -18 6 0 -1 6 -14 13 -23 13 -23 14 -5
18 10 3 1 5 -21 5 l-40 1 35 -19z"/>
<path d="M2521 2498 c-5 -13 -19 -47 -30 -77 -23 -56 -23 -96 -1 -48 11 22 20
27 51 27 33 0 40 -4 45 -25 3 -14 12 -25 19 -25 16 0 -46 162 -64 168 -6 2
-15 -7 -20 -20z m32 -25 c2 -10 8 -26 12 -35 6 -15 2 -18 -25 -18 -27 0 -31 3
-25 18 4 9 10 25 12 35 3 9 9 17 13 17 4 0 10 -8 13 -17z"/>
<path d="M2760 2435 l0 -85 55 0 c30 0 55 5 55 10 0 6 -20 10 -45 10 l-45 0 0
75 c0 43 -4 75 -10 75 -6 0 -10 -35 -10 -85z"/>
<path d="M3020 2506 c-6 -8 -10 -25 -8 -38 2 -17 14 -25 51 -36 54 -15 70 -38
41 -59 -22 -16 -63 -9 -81 14 -7 9 -15 14 -19 11 -3 -4 4 -16 15 -27 25 -25
83 -28 105 -5 32 32 15 60 -45 78 -50 15 -67 49 -30 61 22 7 61 -10 61 -25 0
-6 5 -10 10 -10 15 0 12 16 -6 34 -19 20 -78 21 -94 2z"/>
<path d="M3304 2443 c-16 -43 -30 -81 -32 -85 -2 -4 1 -8 7 -8 6 0 13 11 17
25 5 22 12 25 49 25 37 0 44 -3 49 -25 4 -14 11 -25 17 -25 6 0 8 8 5 18 -38
103 -61 152 -71 152 -7 0 -25 -35 -41 -77z m66 -10 c0 -7 -11 -13 -25 -13 -28
0 -30 4 -13 51 l12 34 12 -30 c7 -17 13 -36 14 -42z"/>
<path d="M3601 2498 c-5 -13 -20 -51 -34 -85 -19 -46 -22 -63 -12 -63 7 0 16
11 19 25 5 21 12 25 45 25 31 0 40 -5 51 -27 26 -57 20 -3 -8 68 -32 79 -47
94 -61 57z m32 -25 c2 -10 8 -26 12 -35 6 -15 2 -18 -25 -18 -27 0 -31 3 -25
18 4 9 10 25 12 35 3 9 9 17 13 17 4 0 10 -8 13 -17z"/>
<path d="M3840 2435 l0 -85 36 0 c36 0 73 15 86 34 4 6 8 30 8 54 0 57 -25 82
-85 82 l-45 0 0 -85z m98 53 c7 -7 12 -31 12 -55 0 -46 -17 -63 -64 -63 -25 0
-26 2 -26 65 l0 65 33 0 c18 0 38 -5 45 -12z"/>
<path d="M4296 2509 c3 -6 17 -9 30 -6 24 4 24 3 24 -74 0 -46 4 -79 10 -79 6
0 10 32 10 75 l0 75 30 0 c17 0 30 5 30 10 0 6 -30 10 -71 10 -48 0 -68 -3
-63 -11z"/>
<path d="M4570 2435 c0 -50 4 -85 10 -85 6 0 10 16 10 36 l0 35 43 -3 c39 -3
42 -5 45 -35 2 -18 7 -33 13 -33 13 0 11 54 -3 68 -9 9 -9 15 0 24 7 7 12 21
12 33 0 33 -20 45 -77 45 l-53 0 0 -85z m108 41 c5 -24 -14 -36 -55 -36 -30 0
-33 3 -33 31 0 29 1 30 42 27 33 -2 44 -8 46 -22z"/>
<path d="M4891 2498 c-5 -13 -19 -47 -30 -77 -23 -56 -23 -96 -1 -48 11 22 20
27 51 27 33 0 40 -4 45 -25 3 -14 12 -25 19 -25 13 0 11 8 -45 148 -5 12 -14
22 -20 22 -6 0 -14 -10 -19 -22z m32 -25 c2 -10 8 -26 12 -35 6 -15 2 -18 -25
-18 -27 0 -31 3 -25 18 4 9 10 25 12 35 3 9 9 17 13 17 4 0 10 -8 13 -17z"/>
<path d="M5100 2518 c2 -27 61 -163 70 -163 7 0 24 29 37 65 34 96 35 100 24
100 -5 0 -20 -31 -32 -70 -13 -38 -25 -70 -28 -70 -4 0 -15 30 -26 67 -11 36
-26 68 -32 71 -7 2 -13 2 -13 0z"/>
<path d="M5390 2435 l0 -85 55 0 c30 0 55 5 55 10 0 6 -20 10 -45 10 -43 0
-45 1 -45 30 0 28 2 30 40 30 22 0 40 5 40 10 0 6 -18 10 -40 10 -36 0 -40 3
-40 25 0 23 4 25 45 25 25 0 45 5 45 10 0 6 -25 10 -55 10 l-55 0 0 -85z"/>
<path d="M5650 2435 l0 -85 55 0 c30 0 55 5 55 10 0 6 -20 10 -45 10 l-45 0 0
75 c0 43 -4 75 -10 75 -6 0 -10 -35 -10 -85z"/>
<path d="M6110 2505 c-10 -12 -10 -21 -2 -40 10 -21 8 -26 -8 -35 -22 -12 -26
-50 -8 -68 7 -7 24 -12 38 -12 14 0 31 5 38 12 9 9 15 9 24 0 19 -19 33 -14
15 6 -11 12 -14 26 -10 42 6 22 4 23 -9 12 -12 -10 -18 -9 -28 3 -11 13 -9 19
6 36 14 15 16 24 8 37 -15 23 -48 27 -64 7z m48 -22 c-2 -10 -10 -18 -18 -18
-8 0 -16 8 -18 18 -2 12 3 17 18 17 15 0 20 -5 18 -17z m-1 -80 c13 -19 12
-23 -7 -33 -25 -13 -50 2 -50 30 0 34 35 36 57 3z"/>
<path d="M6530 2510 c0 -5 14 -10 30 -10 l30 0 0 -75 c0 -43 4 -75 10 -75 6 0
10 32 10 75 0 73 1 75 25 75 14 0 25 5 25 10 0 6 -28 10 -65 10 -37 0 -65 -4
-65 -10z"/>
<path d="M6822 2497 c-31 -33 -30 -96 1 -125 25 -23 66 -28 97 -12 44 24 45
126 0 150 -32 17 -75 11 -98 -13z m85 -2 c67 -47 7 -166 -62 -121 -35 23 -36
97 -3 120 28 20 38 20 65 1z"/>
<path d="M7110 2446 c0 -83 9 -96 69 -96 48 0 61 22 61 101 0 39 -4 69 -10 69
-6 0 -10 -30 -10 -70 0 -60 -3 -71 -21 -81 -16 -8 -28 -8 -45 0 -22 10 -24 17
-24 75 0 36 -4 68 -10 71 -6 4 -10 -21 -10 -69z"/>
<path d="M7400 2435 c0 -50 4 -85 10 -85 6 0 10 16 10 36 l0 35 43 -3 c39 -3
42 -5 45 -35 2 -18 7 -33 13 -33 12 0 12 46 -1 70 -7 13 -7 21 0 25 14 9 13
48 -2 63 -7 7 -36 12 -65 12 l-53 0 0 -85z m108 38 c-3 -25 -7 -28 -45 -31
-42 -3 -43 -2 -43 27 0 30 1 31 46 31 44 0 45 -1 42 -27z"/>
<path d="M7680 2435 c0 -50 4 -85 10 -85 6 0 10 35 10 85 0 50 -4 85 -10 85
-6 0 -10 -35 -10 -85z"/>
<path d="M7870 2506 c-25 -31 -8 -59 45 -75 58 -19 71 -44 30 -63 -22 -10 -30
-8 -55 11 -23 17 -30 18 -30 7 0 -33 79 -49 114 -23 11 8 17 23 14 37 -2 20
-14 29 -55 44 -54 19 -71 47 -37 60 25 10 33 7 55 -15 25 -25 35 -19 19 10
-13 25 -80 30 -100 7z"/>
<path d="M8140 2435 c0 -101 18 -115 22 -17 l3 67 25 -68 c14 -37 29 -66 35
-64 5 2 21 32 35 68 l25 64 3 -67 c4 -98 22 -84 22 18 0 73 -2 85 -16 82 -9
-2 -26 -30 -40 -67 -14 -36 -26 -67 -28 -68 -2 -2 -16 28 -31 66 -39 98 -55
94 -55 -14z"/>
</g>
</svg>
